<?xml version="1.0" standalone="no"?>
<!DOCTYPE svg PUBLIC "-//W3C//DTD SVG 1.1//EN" "http://www.w3.org/Graphics/SVG/1.1/DTD/svg11.dtd" >
<svg xmlns="http://www.w3.org/2000/svg">
<metadata>Generated by IcoMoon</metadata>
<defs>
<font id="icomoon" horiz-adv-x="1024">
<font-face units-per-em="1024" ascent="960" descent="-64" />
<missing-glyph horiz-adv-x="1024" />
<glyph unicode="&#x20;" horiz-adv-x="512" d="" />
<glyph unicode="&#xe900;" glyph-name="calendar1" d="M273 894.2c-18.4-4.8-34.6-18-43-35.2-5-9.8-5-10.8-5-59s0-49.2 5-59c6.2-12.8 18.4-24.8 31-31 14.4-6.8 39.6-6.8 54 0 12.8 6.2 26 19.6 31.6 31.6 4.2 8.8 4.4 12.4 4.4 58.4s-0.2 49.6-4.4 58.4c-5.6 12.2-20.4 26.8-32.2 32-10 4.6-31.4 6.4-41.4 3.8zM714.8 892.4c-20-7.2-36.4-25.2-40.8-45-1.6-6.6-2.2-26-1.6-53.4 0.6-49.2 2-54.6 18-70.4 13.6-13.6 25.4-18.4 45.6-18.4s32 4.8 45.6 18.4c16.4 16.4 17.4 20.4 17.4 76.4 0 46-0.2 49.6-4.4 58.4-5.6 12.2-20.2 26.8-32.2 32-13.2 6-34.4 6.8-47.6 2zM69 827l-5-4.8v-812.4l5-4.8 4.8-5h876.4l4.8 5 5 4.8v812.4l-5 4.8-4.8 5h-118l-1.2-97.2-6.6-13.2c-18-36.6-68.4-57.6-111.4-46.6-29.8 7.8-55.6 26.6-66.6 48.8-5.4 11.2-5.4 11.4-6 59.8l-0.6 48.4h-255.6l-0.6-48.4c-0.6-48.2-0.6-48.6-6-59.6-7.4-15.2-15.6-24.2-29.6-33.6-18.8-12.6-35-17.4-60-17.4s-41.2 4.8-60 17.4c-14 9.4-22.2 18.4-29.6 33.6-5.4 11-5.4 11.4-6 59.6l-0.6 48.4h-118l-4.8-5zM864 352v-256h-704v512h704v-256zM478.8 546.6c-7-33.2-27.2-46.4-76.8-49.8l-20-1.4v-65.4h86v-214h-86v-72h274v72h-86v336h-90l-1.2-5.4z" />
<glyph unicode="&#xe901;" glyph-name="calendar2" d="M273 894.2c-18.4-4.8-34.6-18-43-35.2-5-9.8-5-10.8-5-59s0-49.2 5-59c6.2-12.8 18.4-24.8 31-31 14.4-6.8 39.6-6.8 54 0 12.8 6.2 26 19.6 31.6 31.6 4.2 8.8 4.4 12.4 4.4 58.4s-0.2 49.6-4.4 58.4c-5.6 12.2-20.4 26.8-32.2 32-10 4.6-31.4 6.4-41.4 3.8zM714.8 892.4c-20-7.2-36.4-25.2-40.8-45-1.6-6.6-2.2-26-1.6-53.4 0.6-49.2 2-54.6 18-70.4 13.6-13.6 25.4-18.4 45.6-18.4s32 4.8 45.6 18.4c16.4 16.4 17.4 20.4 17.4 76.4 0 46-0.2 49.6-4.4 58.4-5.6 12.2-20.2 26.8-32.2 32-13.2 6-34.4 6.8-47.6 2zM69 827l-5-4.8v-812.4l5-4.8 4.8-5h876.4l4.8 5 5 4.8v812.4l-5 4.8-4.8 5h-118l-1.2-97.2-6.6-13.2c-18-36.6-68.4-57.6-111.4-46.6-29.8 7.8-55.6 26.6-66.6 48.8-5.4 11.2-5.4 11.4-6 59.8l-0.6 48.4h-255.6l-0.6-48.4c-0.6-48.2-0.6-48.6-6-59.6-7.4-15.2-15.6-24.2-29.6-33.6-18.8-12.6-35-17.4-60-17.4s-41.2 4.8-60 17.4c-14 9.4-22.2 18.4-29.6 33.6-5.4 11-5.4 11.4-6 59.6l-0.6 48.4h-118l-4.8-5zM864 352v-256h-704v512h704v-256zM467.2 558c-23.2-3-55.2-10-75.2-16.6l-19-6.4-0.6-45.4c-0.4-41.4-0.2-45.6 2.8-45.6 1.8 0 15.2 5.8 29.6 13 29.8 14.6 49 20.6 72.4 22.4 40.8 3 70-12.8 76.8-41.8 5.2-20.8-1-46.2-17-70.6-18.2-28.2-93.6-96.4-157.8-143l-17.2-12.4v-67.6h318v78l-90 0.4-89.8 0.6 23.2 17.8c95.2 73 134.2 125.8 138 187.2 4 66.8-32.6 112.4-102.4 127-18.6 4-71 5.6-91.8 3z" />
<glyph unicode="&#xe902;" glyph-name="calendar3" d="M273 894.2c-18.4-4.8-34.6-18-43-35.2-5-9.8-5-10.8-5-59s0-49.2 5-59c6.2-12.8 18.4-24.8 31-31 14.4-6.8 39.6-6.8 54 0 12.8 6.2 26 19.6 31.6 31.6 4.2 8.8 4.4 12.4 4.4 58.4s-0.2 49.6-4.4 58.4c-5.6 12.2-20.4 26.8-32.2 32-10 4.6-31.4 6.4-41.4 3.8zM714.8 892.4c-20-7.2-36.4-25.2-40.8-45-1.6-6.6-2.2-26-1.6-53.4 0.6-49.2 2-54.6 18-70.4 13.6-13.6 25.4-18.4 45.6-18.4s32 4.8 45.6 18.4c16.4 16.4 17.4 20.4 17.4 76.4 0 46-0.2 49.6-4.4 58.4-5.6 12.2-20.2 26.8-32.2 32-13.2 6-34.4 6.8-47.6 2zM69 827l-5-4.8v-812.4l5-4.8 4.8-5h876.4l4.8 5 5 4.8v812.4l-5 4.8-4.8 5h-118l-1.2-97.2-6.6-13.2c-18-36.6-68.4-57.6-111.4-46.6-29.8 7.8-55.6 26.6-66.6 48.8-5.4 11.2-5.4 11.4-6 59.8l-0.6 48.4h-255.6l-0.6-48.4c-0.6-48.2-0.6-48.6-6-59.6-7.4-15.2-15.6-24.2-29.6-33.6-18.8-12.6-35-17.4-60-17.4s-41.2 4.8-60 17.4c-14 9.4-22.2 18.4-29.6 33.6-5.4 11-5.4 11.4-6 59.6l-0.6 48.4h-118l-4.8-5zM864 352v-256h-704v512h704v-256zM479 558.6c-34.2-4-83-14.6-100-21.6l-7-3v-88h5c2.8 0 12.4 3.6 21.2 8 30.8 15.6 70.6 26 99.2 26 17.2 0 39.4-3.6 49.4-8 21.2-9.2 29.2-31.4 18.8-52-9.4-18.6-25-23.8-74-25.4l-35.6-1.2v-71.4h31.6c17.2 0 37.2-1 44.2-2 13.8-2.4 29-9.2 34.8-15.6 8.6-9.4 11.6-29.8 7.2-47.4-8.2-33-60.6-49-120-37-24 5-43 11.6-66.4 23.2-9.6 4.8-19.8 8.8-22.6 8.8h-4.8l0.4-45.4 0.6-45.6 16.8-5.6c42-14.4 90.8-20.8 141.2-18.8 34.4 1.6 50.8 4.4 75.6 13.4 58 21.2 90 67.4 86.8 125.6-0.8 15-2.2 21-7.2 31.6-11.4 24.2-34.8 42-66.2 50-7.6 2-14 4.4-14 5.2s3.8 2.4 8.6 3.8c31 8.2 57.8 36.2 66.4 69.2 13.6 52.4-16.8 97.6-77.4 114.6-28.2 8-82.8 12.2-112.6 8.6z" />
<glyph unicode="&#xe903;" glyph-name="calendar4" d="M273 894.2c-18.4-4.8-34.6-18-43-35.2-5-9.8-5-10.8-5-59s0-49.2 5-59c6.2-12.8 18.4-24.8 31-31 14.4-6.8 39.6-6.8 54 0 12.8 6.2 26 19.6 31.6 31.6 4.2 8.8 4.4 12.4 4.4 58.4s-0.2 49.6-4.4 58.4c-5.6 12.2-20.4 26.8-32.2 32-10 4.6-31.4 6.4-41.4 3.8zM714.8 892.4c-20-7.2-36.4-25.2-40.8-45-1.6-6.6-2.2-26-1.6-53.4 0.6-49.2 2-54.6 18-70.4 13.6-13.6 25.4-18.4 45.6-18.4s32 4.8 45.6 18.4c16.4 16.4 17.4 20.4 17.4 76.4 0 46-0.2 49.6-4.4 58.4-5.6 12.2-20.2 26.8-32.2 32-13.2 6-34.4 6.8-47.6 2zM69 827l-5-4.8v-812.4l5-4.8 4.8-5h876.4l4.8 5 5 4.8v812.4l-5 4.8-4.8 5h-118l-1.2-97.2-6.6-13.2c-18-36.6-68.4-57.6-111.4-46.6-29.8 7.8-55.6 26.6-66.6 48.8-5.4 11.2-5.4 11.4-6 59.8l-0.6 48.4h-255.6l-0.6-48.4c-0.6-48.2-0.6-48.6-6-59.6-7.4-15.2-15.6-24.2-29.6-33.6-18.8-12.6-35-17.4-60-17.4s-41.2 4.8-60 17.4c-14 9.4-22.2 18.4-29.6 33.6-5.4 11-5.4 11.4-6 59.6l-0.6 48.4h-118l-4.8-5zM864 352v-256h-704v512h704v-256zM431.6 436.4l-95.6-117.4v-79h198v-96h100v96h56v76h-56v238h-53.4l-53.6-0.2-95.4-117.4zM533.4 316.6c-0.4-0.4-27.4-0.4-59.8-0.2l-59.2 0.6 59.4 73 59.2 73 0.6-72.8c0.2-40 0.2-73.2-0.2-73.6z" />
<glyph unicode="&#xe904;" glyph-name="calendar5" d="M273 894.2c-18.4-4.8-34.6-18-43-35.2-5-9.8-5-10.8-5-59s0-49.2 5-59c6.2-12.8 18.4-24.8 31-31 14.4-6.8 39.6-6.8 54 0 12.8 6.2 26 19.6 31.6 31.6 4.2 8.8 4.4 12.4 4.4 58.4s-0.2 49.6-4.4 58.4c-5.6 12.2-20.4 26.8-32.2 32-10 4.6-31.4 6.4-41.4 3.8zM714.8 892.4c-20-7.2-36.4-25.2-40.8-45-1.6-6.6-2.2-26-1.6-53.4 0.6-49.2 2-54.6 18-70.4 13.6-13.6 25.4-18.4 45.6-18.4s32 4.8 45.6 18.4c16.4 16.4 17.4 20.4 17.4 76.4 0 46-0.2 49.6-4.4 58.4-5.6 12.2-20.2 26.8-32.2 32-13.2 6-34.4 6.8-47.6 2zM69 827l-5-4.8v-812.4l5-4.8 4.8-5h876.4l4.8 5 5 4.8v812.4l-5 4.8-4.8 5h-118l-1.2-97.2-6.6-13.2c-18-36.6-68.4-57.6-111.4-46.6-29.8 7.8-55.6 26.6-66.6 48.8-5.4 11.2-5.4 11.4-6 59.8l-0.6 48.4h-255.6l-0.6-48.4c-0.6-48.2-0.6-48.6-6-59.6-7.4-15.2-15.6-24.2-29.6-33.6-18.8-12.6-35-17.4-60-17.4s-41.2 4.8-60 17.4c-14 9.4-22.2 18.4-29.6 33.6-5.4 11-5.4 11.4-6 59.6l-0.6 48.4h-118l-4.8-5zM864 352v-256h-704v512h704v-256zM374 444v-116h5.6c3 0 17.2 2.4 31.4 5.4 33.4 6.8 84.6 7.8 109.2 2 20.4-4.8 35-13.8 42.8-26.2 5.4-9 6-11.4 6-27 0-19-2.6-25.4-15.4-37.6-18-17.4-61-24.8-102.6-17.6-19.8 3.6-50 14.2-68.6 24.2-6.8 3.8-15.2 6.8-18.4 6.8h-6v-89.8l10.8-4c42.6-16 113-24 161-18.4 94.6 11.2 150.8 70.6 145.6 154.2-2.2 34-10.6 53.6-32.2 75.2-29.4 29.4-73.8 42.2-141 40.4l-28.2-0.6v67h190v78h-290v-116z" />
<glyph unicode="&#xe905;" glyph-name="calendar6" d="M273 894.2c-18.4-4.8-34.6-18-43-35.2-5-9.8-5-10.8-5-59s0-49.2 5-59c6.2-12.8 18.4-24.8 31-31 14.4-6.8 39.6-6.8 54 0 12.8 6.2 26 19.6 31.6 31.6 4.2 8.8 4.4 12.4 4.4 58.4s-0.2 49.6-4.4 58.4c-5.6 12.2-20.4 26.8-32.2 32-10 4.6-31.4 6.4-41.4 3.8zM714.8 892.4c-20-7.2-36.4-25.2-40.8-45-1.6-6.6-2.2-26-1.6-53.4 0.6-49.2 2-54.6 18-70.4 13.6-13.6 25.4-18.4 45.6-18.4s32 4.8 45.6 18.4c16.4 16.4 17.4 20.4 17.4 76.4 0 46-0.2 49.6-4.4 58.4-5.6 12.2-20.2 26.8-32.2 32-13.2 6-34.4 6.8-47.6 2zM69 827l-5-4.8v-812.4l5-4.8 4.8-5h876.4l4.8 5 5 4.8v812.4l-5 4.8-4.8 5h-118l-1.2-97.2-6.6-13.2c-18-36.6-68.4-57.6-111.4-46.6-29.8 7.8-55.6 26.6-66.6 48.8-5.4 11.2-5.4 11.4-6 59.8l-0.6 48.4h-255.6l-0.6-48.4c-0.6-48.2-0.6-48.6-6-59.6-7.4-15.2-15.6-24.2-29.6-33.6-18.8-12.6-35-17.4-60-17.4s-41.2 4.8-60 17.4c-14 9.4-22.2 18.4-29.6 33.6-5.4 11-5.4 11.4-6 59.6l-0.6 48.4h-118l-4.8-5zM864 352v-256h-704v512h704v-256zM533.6 565.8c-99-11.4-161-70.2-179-169.8-4.8-27-4.8-94 0-118.8 17-84.8 68.4-128.8 155.4-132.6 57-2.4 101.6 12.6 133.8 45.4 21.4 21.4 33.4 45.8 38.4 78 2.8 18 1.2 50-3.4 67-8.2 30.8-31 59.6-57.8 73.2-23 11.8-36 14.6-68 14.6-32.8 0.2-49.6-3.6-78-17.6l-17.4-8.6 1.4 9.2c3.2 21.4 18 48.2 33.8 61.2 28.4 23.2 82.8 31.4 127.2 19 8.2-2.2 18.4-4.6 22.6-5.4l7.4-1.2v41.4c0 31.6-0.6 41.2-2.4 41.2-1.4 0-14.2 1.4-28.6 3-28.2 3.2-61.2 3.4-85.4 0.8zM529 349.8c21.2-3.8 35.6-14.4 43.8-31.8 3.4-7.6 4.2-12.8 4.2-32 0-21.2-0.4-24-5.8-35.6-13-28-39.6-40-69.4-31.2-8.2 2.4-13.2 5.6-21 13.6-16.8 17.2-24.6 44.6-24.8 86.8v22.4l5.6 2.2c18.6 7.2 46.6 9.4 67.4 5.6z" />
<glyph unicode="&#xe906;" glyph-name="calendar7" d="M273 894.2c-18.4-4.8-34.6-18-43-35.2-5-9.8-5-10.8-5-59s0-49.2 5-59c6.2-12.8 18.4-24.8 31-31 14.4-6.8 39.6-6.8 54 0 12.8 6.2 26 19.6 31.6 31.6 4.2 8.8 4.4 12.4 4.4 58.4s-0.2 49.6-4.4 58.4c-5.6 12.2-20.4 26.8-32.2 32-10 4.6-31.4 6.4-41.4 3.8zM714.8 892.4c-20-7.2-36.4-25.2-40.8-45-1.6-6.6-2.2-26-1.6-53.4 0.6-49.2 2-54.6 18-70.4 13.6-13.6 25.4-18.4 45.6-18.4s32 4.8 45.6 18.4c16.4 16.4 17.4 20.4 17.4 76.4 0 46-0.2 49.6-4.4 58.4-5.6 12.2-20.2 26.8-32.2 32-13.2 6-34.4 6.8-47.6 2zM69 827l-5-4.8v-812.4l5-4.8 4.8-5h876.4l4.8 5 5 4.8v812.4l-5 4.8-4.8 5h-118l-1.2-97.2-6.6-13.2c-18-36.6-68.4-57.6-111.4-46.6-29.8 7.8-55.6 26.6-66.6 48.8-5.4 11.2-5.4 11.4-6 59.8l-0.6 48.4h-255.6l-0.6-48.4c-0.6-48.2-0.6-48.6-6-59.6-7.4-15.2-15.6-24.2-29.6-33.6-18.8-12.6-35-17.4-60-17.4s-41.2 4.8-60 17.4c-14 9.4-22.2 18.4-29.6 33.6-5.4 11-5.4 11.4-6 59.6l-0.6 48.4h-118l-4.8-5zM864 352v-256h-704v512h704v-256zM356 521v-39h105c57.8 0 105-0.6 105-1.2 0-1-182.8-314-189.6-324.4l-3-4.4 58.6 0.4 58.4 0.6 185.6 326v81h-320v-39z" />
<glyph unicode="&#xe907;" glyph-name="calendar8" d="M273 894.2c-18.4-4.8-34.6-18-43-35.2-5-9.8-5-10.8-5-59s0-49.2 5-59c6.2-12.8 18.4-24.8 31-31 14.4-6.8 39.6-6.8 54 0 12.8 6.2 26 19.6 31.6 31.6 4.2 8.8 4.4 12.4 4.4 58.4s-0.2 49.6-4.4 58.4c-5.6 12.2-20.4 26.8-32.2 32-10 4.6-31.4 6.4-41.4 3.8zM714.8 892.4c-20-7.2-36.4-25.2-40.8-45-1.6-6.6-2.2-26-1.6-53.4 0.6-49.2 2-54.6 18-70.4 13.6-13.6 25.4-18.4 45.6-18.4s32 4.8 45.6 18.4c16.4 16.4 17.4 20.4 17.4 76.4 0 46-0.2 49.6-4.4 58.4-5.6 12.2-20.2 26.8-32.2 32-13.2 6-34.4 6.8-47.6 2zM69 827l-5-4.8v-812.4l5-4.8 4.8-5h876.4l4.8 5 5 4.8v812.4l-5 4.8-4.8 5h-118l-1.2-97.2-6.6-13.2c-18-36.6-68.4-57.6-111.4-46.6-29.8 7.8-55.6 26.6-66.6 48.8-5.4 11.2-5.4 11.4-6 59.8l-0.6 48.4h-255.6l-0.6-48.4c-0.6-48.2-0.6-48.6-6-59.6-7.4-15.2-15.6-24.2-29.6-33.6-18.8-12.6-35-17.4-60-17.4s-41.2 4.8-60 17.4c-14 9.4-22.2 18.4-29.6 33.6-5.4 11-5.4 11.4-6 59.6l-0.6 48.4h-118l-4.8-5zM864 352v-256h-704v512h704v-256zM479 565.8c-39.4-5.2-74-20.6-96.2-42.8-15.4-15.2-21.2-24.6-25.8-42.4-11.4-43.8 10.8-92.2 52.6-114.2 6.8-3.6 12.4-7 12.4-7.6 0-0.4-4.8-3-10.8-5.6-47-20.8-70.2-55.8-66.6-99.8 2.2-26.2 10.4-44.6 28.2-63 27.6-28.8 67.4-43.2 126.2-45.8 66.4-2.8 118.2 11.8 151 42.6 15.8 15 24.2 27 30.4 44s6.2 54.6 0 71.6c-9.8 26.6-31 49.2-59.6 63.2-9.2 4.6-16.8 8.8-16.8 9.2 0 0.2 7 4.2 15.6 8.8 36.2 18.8 56.4 48 56.4 82 0 47.6-36.6 82.4-101 96.4-21 4.4-74.2 6.4-96 3.4zM536 493.8c14-3 28-12.8 33.6-23.8 4-7.8 4.6-11 3.8-23.2-1.2-15-5-24.8-15.8-40.2l-6-8.2-26.4 9c-31.8 10.8-51.8 21-58.4 29.8-7 9-8.4 25.2-3.2 34.8 10.2 18.6 42.4 28.2 72.4 21.8zM504.2 325c31.2-11.4 55.6-23.2 64.6-31.6 8.2-8 12-20.4 10.6-35-2.4-23.4-22.6-38.8-54.6-41.8-23.6-2.2-46.6 5-61.4 19.2-12.6 12-16.2 20.6-16.4 40.2 0 14.6 0.8 18.6 5.6 28.2 6 12.2 20.2 29.8 24.2 29.8 1.4 0 13.6-4 27.4-9z" />
<glyph unicode="&#xe908;" glyph-name="calendar9" d="M273 894.2c-18.4-4.8-34.6-18-43-35.2-5-9.8-5-10.8-5-59s0-49.2 5-59c6.2-12.8 18.4-24.8 31-31 14.4-6.8 39.6-6.8 54 0 12.8 6.2 26 19.6 31.6 31.6 4.2 8.8 4.4 12.4 4.4 58.4s-0.2 49.6-4.4 58.4c-5.6 12.2-20.4 26.8-32.2 32-10 4.6-31.4 6.4-41.4 3.8zM714.8 892.4c-20-7.2-36.4-25.2-40.8-45-1.6-6.6-2.2-26-1.6-53.4 0.6-49.2 2-54.6 18-70.4 13.6-13.6 25.4-18.4 45.6-18.4s32 4.8 45.6 18.4c16.4 16.4 17.4 20.4 17.4 76.4 0 46-0.2 49.6-4.4 58.4-5.6 12.2-20.2 26.8-32.2 32-13.2 6-34.4 6.8-47.6 2zM69 827l-5-4.8v-812.4l5-4.8 4.8-5h876.4l4.8 5 5 4.8v812.4l-5 4.8-4.8 5h-118l-1.2-97.2-6.6-13.2c-18-36.6-68.4-57.6-111.4-46.6-29.8 7.8-55.6 26.6-66.6 48.8-5.4 11.2-5.4 11.4-6 59.8l-0.6 48.4h-255.6l-0.6-48.4c-0.6-48.2-0.6-48.6-6-59.6-7.4-15.2-15.6-24.2-29.6-33.6-18.8-12.6-35-17.4-60-17.4s-41.2 4.8-60 17.4c-14 9.4-22.2 18.4-29.6 33.6-5.4 11-5.4 11.4-6 59.6l-0.6 48.4h-118l-4.8-5zM864 352v-256h-704v512h704v-256zM477.6 566c-29.8-4.8-53.6-14-74.2-28.8-42-29.8-62-73.6-58.8-128.2 2.2-37.8 11.8-61.2 34.6-84.4 22.2-22.8 49-33.6 87.8-36 32.6-1.8 56.2 3.2 86.6 18.8 9 4.6 16.4 7.4 16.4 6.2 0-6-7-27.8-12.4-38.4-7.6-15.2-27.2-34.8-41.6-41.8-20.4-9.8-34.2-12.4-66-12.2-24.4 0.2-31.2 0.8-43 4.6-7.6 2.6-17.4 5-21.4 5.6l-7.6 1v-82l8.6-1.2c102.8-15 181.2 3 231 53 15.6 15.6 30.2 37.4 38.6 57.6 26.2 62.8 28.8 156.6 6 215.4-17 43.8-53.4 75.4-100.2 86.8-19.4 4.8-65.6 7-84.4 4zM533 490.4c26-13.4 39-46.4 39-98.8v-21.6l-5.4-2.2c-9.2-3.4-34.2-7.8-45.4-7.8-24.2 0-43 6.2-55 18.4-11.8 11.8-15 21.6-15 46.6 0 18.4 0.8 24 4.6 33.8 6.2 15.6 20.2 29.8 33.4 34 13 4.2 33.4 3 43.8-2.4z" />
<glyph unicode="&#xe909;" glyph-name="calendar10" d="M273 894.2c-18.4-4.8-34.6-18-43-35.2-5-9.8-5-10.8-5-59s0-49.2 5-59c6.2-12.8 18.4-24.8 31-31 14.4-6.8 39.6-6.8 54 0 12.8 6.2 26 19.6 31.6 31.6 4.2 8.8 4.4 12.4 4.4 58.4s-0.2 49.6-4.4 58.4c-5.6 12.2-20.4 26.8-32.2 32-10 4.6-31.4 6.4-41.4 3.8zM714.8 892.4c-20-7.2-36.4-25.2-40.8-45-1.6-6.6-2.2-26-1.6-53.4 0.6-49.2 2-54.6 18-70.4 13.6-13.6 25.4-18.4 45.6-18.4s32 4.8 45.6 18.4c16.4 16.4 17.4 20.4 17.4 76.4 0 46-0.2 49.6-4.4 58.4-5.6 12.2-20.2 26.8-32.2 32-13.2 6-34.4 6.8-47.6 2zM69 827l-5-4.8v-812.4l5-4.8 4.8-5h876.4l4.8 5 5 4.8v812.4l-5 4.8-4.8 5h-118l-1.2-97.2-6.6-13.2c-18-36.6-68.4-57.6-111.4-46.6-29.8 7.8-55.6 26.6-66.6 48.8-5.4 11.2-5.4 11.4-6 59.8l-0.6 48.4h-255.6l-0.6-48.4c-0.6-48.2-0.6-48.6-6-59.6-7.4-15.2-15.6-24.2-29.6-33.6-18.8-12.6-35-17.4-60-17.4s-41.2 4.8-60 17.4c-14 9.4-22.2 18.4-29.6 33.6-5.4 11-5.4 11.4-6 59.6l-0.6 48.4h-118l-4.8-5zM864 352v-256h-704v512h704v-256zM617 558c-57.2-9-95.2-43.2-111.6-100-8.2-28.4-10.4-49.4-10.2-97 0-49.4 3-72 12.8-101.4 8.2-24.4 16.6-38.4 32.8-54.8 16.2-16.2 34.4-26.6 59-33.2 12.8-3.6 20.8-4.2 51.2-4.2 30.6 0 38.4 0.6 51.6 4.2 23.8 6.6 40.6 15.6 56.4 30.8 17.2 16.2 25.6 30 34.2 55.2 11 32.6 13.6 53.2 13.6 105.4 0 48.4-2.4 70.4-11.2 99-14.6 47.6-47.6 80.2-93 92.2-18 4.8-65.8 6.8-85.6 3.8zM676.4 483.4c24.4-14.2 32.6-45.2 32.6-121.4-0.2-66-6.6-95-24.6-112.6-18.2-17.6-48.6-17.6-66.8 0-18 17.6-24.4 46.6-24.6 112.6 0 84.2 10.6 115.8 42.6 126.2 10.2 3.2 31.4 0.8 40.8-4.8zM314 540.6c0-15.8-14-34-30.8-40.4-11.2-4.2-35.8-8.2-50.4-8.2h-8.8v-62h80v-198h-80v-66h254v66h-80v312h-42c-38.6 0-42-0.2-42-3.4z" />
<glyph unicode="&#xe90a;" glyph-name="calendar11" d="M273 894.2c-18.4-4.8-34.6-18-43-35.2-5-9.8-5-10.8-5-59s0-49.2 5-59c6.2-12.8 18.4-24.8 31-31 14.4-6.8 39.6-6.8 54 0 12.8 6.2 26 19.6 31.6 31.6 4.2 8.8 4.4 12.4 4.4 58.4s-0.2 49.6-4.4 58.4c-5.6 12.2-20.4 26.8-32.2 32-10 4.6-31.4 6.4-41.4 3.8zM714.8 892.4c-20-7.2-36.4-25.2-40.8-45-1.6-6.6-2.2-26-1.6-53.4 0.6-49.2 2-54.6 18-70.4 13.6-13.6 25.4-18.4 45.6-18.4s32 4.8 45.6 18.4c16.4 16.4 17.4 20.4 17.4 76.4 0 46-0.2 49.6-4.4 58.4-5.6 12.2-20.2 26.8-32.2 32-13.2 6-34.4 6.8-47.6 2zM69 827l-5-4.8v-812.4l5-4.8 4.8-5h876.4l4.8 5 5 4.8v812.4l-5 4.8-4.8 5h-118l-1.2-97.2-6.6-13.2c-18-36.6-68.4-57.6-111.4-46.6-29.8 7.8-55.6 26.6-66.6 48.8-5.4 11.2-5.4 11.4-6 59.8l-0.6 48.4h-255.6l-0.6-48.4c-0.6-48.2-0.6-48.6-6-59.6-7.4-15.2-15.6-24.2-29.6-33.6-18.8-12.6-35-17.4-60-17.4s-41.2 4.8-60 17.4c-14 9.4-22.2 18.4-29.6 33.6-5.4 11-5.4 11.4-6 59.6l-0.6 48.4h-118l-4.8-5zM864 352v-256h-704v512h704v-256zM330 540.6c0-15.8-14-34-30.8-40.4-11.2-4.2-35.8-8.2-50.4-8.2h-8.8v-62h80v-198h-80v-66h254v66h-80v312h-42c-38.6 0-42-0.2-42-3.4zM636 540.6c0-15.8-14-34-30.8-40.4-11.2-4.2-35.8-8.2-50.4-8.2h-8.8v-62h80v-198h-80v-66h254v66h-80v312h-42c-38.6 0-42-0.2-42-3.4z" />
<glyph unicode="&#xe90b;" glyph-name="calendar12" d="M273 894.2c-18.4-4.8-34.6-18-43-35.2-5-9.8-5-10.8-5-59s0-49.2 5-59c6.2-12.8 18.4-24.8 31-31 14.4-6.8 39.6-6.8 54 0 12.8 6.2 26 19.6 31.6 31.6 4.2 8.8 4.4 12.4 4.4 58.4s-0.2 49.6-4.4 58.4c-5.6 12.2-20.4 26.8-32.2 32-10 4.6-31.4 6.4-41.4 3.8zM714.8 892.4c-20-7.2-36.4-25.2-40.8-45-1.6-6.6-2.2-26-1.6-53.4 0.6-49.2 2-54.6 18-70.4 13.6-13.6 25.4-18.4 45.6-18.4s32 4.8 45.6 18.4c16.4 16.4 17.4 20.4 17.4 76.4 0 46-0.2 49.6-4.4 58.4-5.6 12.2-20.2 26.8-32.2 32-13.2 6-34.4 6.8-47.6 2zM69 827l-5-4.8v-812.4l5-4.8 4.8-5h876.4l4.8 5 5 4.8v812.4l-5 4.8-4.8 5h-118l-1.2-97.2-6.6-13.2c-18-36.6-68.4-57.6-111.4-46.6-29.8 7.8-55.6 26.6-66.6 48.8-5.4 11.2-5.4 11.4-6 59.8l-0.6 48.4h-255.6l-0.6-48.4c-0.6-48.2-0.6-48.6-6-59.6-7.4-15.2-15.6-24.2-29.6-33.6-18.8-12.6-35-17.4-60-17.4s-41.2 4.8-60 17.4c-14 9.4-22.2 18.4-29.6 33.6-5.4 11-5.4 11.4-6 59.6l-0.6 48.4h-118l-4.8-5zM864 352v-256h-704v512h704v-256zM614.8 549c-21.2-3-61.8-12.8-73.8-17.8l-7-3v-42c0-48.8-0.6-47.8 19.8-35.4 29.2 17.8 67.6 28.6 94 26.6 36.2-2.6 55.4-18.8 57.8-48.6 3.4-44-37.8-92.6-151-178.2l-30.6-23v-61.6h298v72h-170.4l22.6 17.2c105 79.6 141.6 140.2 126.8 209.8-8.8 41-39 69.2-87 81-22.6 5.6-71 7-99.2 3zM330 540.6c0-15.8-14-34-30.8-40.4-11.2-4.2-35.8-8.2-50.4-8.2h-8.8v-62h80v-198h-80v-66h254v66h-80v312h-42c-38.6 0-42-0.2-42-3.4z" />
<glyph unicode="&#xe90c;" glyph-name="calendar13" d="M273 894.2c-18.4-4.8-34.6-18-43-35.2-5-9.8-5-10.8-5-59s0-49.2 5-59c6.2-12.8 18.4-24.8 31-31 14.4-6.8 39.6-6.8 54 0 12.8 6.2 26 19.6 31.6 31.6 4.2 8.8 4.4 12.4 4.4 58.4s-0.2 49.6-4.4 58.4c-5.6 12.2-20.4 26.8-32.2 32-10 4.6-31.4 6.4-41.4 3.8zM714.8 892.4c-20-7.2-36.4-25.2-40.8-45-1.6-6.6-2.2-26-1.6-53.4 0.6-49.2 2-54.6 18-70.4 13.6-13.6 25.4-18.4 45.6-18.4s32 4.8 45.6 18.4c16.4 16.4 17.4 20.4 17.4 76.4 0 46-0.2 49.6-4.4 58.4-5.6 12.2-20.2 26.8-32.2 32-13.2 6-34.4 6.8-47.6 2zM69 827l-5-4.8v-812.4l5-4.8 4.8-5h876.4l4.8 5 5 4.8v812.4l-5 4.8-4.8 5h-118l-1.2-97.2-6.6-13.2c-18-36.6-68.4-57.6-111.4-46.6-29.8 7.8-55.6 26.6-66.6 48.8-5.4 11.2-5.4 11.4-6 59.8l-0.6 48.4h-255.6l-0.6-48.4c-0.6-48.2-0.6-48.6-6-59.6-7.4-15.2-15.6-24.2-29.6-33.6-18.8-12.6-35-17.4-60-17.4s-41.2 4.8-60 17.4c-14 9.4-22.2 18.4-29.6 33.6-5.4 11-5.4 11.4-6 59.6l-0.6 48.4h-118l-4.8-5zM864 352v-256h-704v512h704v-256zM615.2 549.8c-20.2-2.2-51.8-9-72.4-15.4l-17.8-5.6-0.6-41.4-0.4-41.4h4.6c2.4 0 10.4 3.2 17.6 7 17.8 9.4 51.2 20.2 71.6 23.2 19.4 2.8 46.4 1.4 61.6-3.2 18-5.4 28.6-17.4 28.6-32.4 0-13-3.6-22-11.6-28.6-11.6-9.6-23.4-12.2-60.8-13.4l-33.6-1.2v-65.4h30.6c46.6 0 65.8-5.6 75.8-21.6 3.8-6.2 4.6-10.2 4.6-24.8 0-16-0.4-17.8-6-26-7.8-11.2-22.2-20.6-35.4-23.6-40.4-8.8-88-1.4-132.6 20.2-8.6 4.4-17.8 7.8-20.4 7.8h-4.6l0.4-41.4 0.6-41.6 16.2-5.4c38.8-13 82.2-18.8 128.8-17 32.4 1.2 50.8 4.6 73.2 13.2 53 20.6 81.2 62.6 78.2 116.8-0.8 14.4-2 19.8-7.2 30.2-11 22.4-33.4 39.2-60.6 45.4-11.8 2.8-14.4 5-8 7 1.8 0.6 9.8 4.2 17.6 8 32 15.2 50.8 48.4 48.2 85.2-3.2 47.8-40.8 76.8-110.4 85.4-20.2 2.4-55 2.4-75.8 0zM330 540.6c0-15.8-14-34-30.8-40.4-11.2-4.2-35.8-8.2-50.4-8.2h-8.8v-62h80v-198h-80v-66h254v66h-80v312h-42c-38.6 0-42-0.2-42-3.4z" />
<glyph unicode="&#xe90d;" glyph-name="calendar14" d="M273 894.2c-18.4-4.8-34.6-18-43-35.2-5-9.8-5-10.8-5-59s0-49.2 5-59c6.2-12.8 18.4-24.8 31-31 14.4-6.8 39.6-6.8 54 0 12.8 6.2 26 19.6 31.6 31.6 4.2 8.8 4.4 12.4 4.4 58.4s-0.2 49.6-4.4 58.4c-5.6 12.2-20.4 26.8-32.2 32-10 4.6-31.4 6.4-41.4 3.8zM714.8 892.4c-20-7.2-36.4-25.2-40.8-45-1.6-6.6-2.2-26-1.6-53.4 0.6-49.2 2-54.6 18-70.4 13.6-13.6 25.4-18.4 45.6-18.4s32 4.8 45.6 18.4c16.4 16.4 17.4 20.4 17.4 76.4 0 46-0.2 49.6-4.4 58.4-5.6 12.2-20.2 26.8-32.2 32-13.2 6-34.4 6.8-47.6 2zM69 827l-5-4.8v-812.4l5-4.8 4.8-5h876.4l4.8 5 5 4.8v812.4l-5 4.8-4.8 5h-118l-1.2-97.2-6.6-13.2c-18-36.6-68.4-57.6-111.4-46.6-29.8 7.8-55.6 26.6-66.6 48.8-5.4 11.2-5.4 11.4-6 59.8l-0.6 48.4h-255.6l-0.6-48.4c-0.6-48.2-0.6-48.6-6-59.6-7.4-15.2-15.6-24.2-29.6-33.6-18.8-12.6-35-17.4-60-17.4s-41.2 4.8-60 17.4c-14 9.4-22.2 18.4-29.6 33.6-5.4 11-5.4 11.4-6 59.6l-0.6 48.4h-118l-4.8-5zM864 352v-256h-704v512h704v-256zM330 540.6c0-15.8-14-34-30.8-40.4-11.2-4.2-35.8-8.2-50.4-8.2h-8.8v-62h80v-198h-80v-66h254v66h-80v312h-42c-38.6 0-42-0.2-42-3.4zM619.4 473.6c-31.2-38.8-70.8-88.2-88-109.8l-31.4-39.2v-72.6h182v-88h94v88h52v70h-52v222h-99.8l-56.8-70.4zM682 390v-68h-54.2c-29.8 0-53.8 0.8-53.4 1.6 0.6 2 106.4 134.4 107.2 134.4 0.2 0 0.4-30.6 0.4-68z" />
<glyph unicode="&#xe90e;" glyph-name="calendar15" d="M273 894.2c-18.4-4.8-34.6-18-43-35.2-5-9.8-5-10.8-5-59s0-49.2 5-59c6.2-12.8 18.4-24.8 31-31 14.4-6.8 39.6-6.8 54 0 12.8 6.2 26 19.6 31.6 31.6 4.2 8.8 4.4 12.4 4.4 58.4s-0.2 49.6-4.4 58.4c-5.6 12.2-20.4 26.8-32.2 32-10 4.6-31.4 6.4-41.4 3.8zM714.8 892.4c-20-7.2-36.4-25.2-40.8-45-1.6-6.6-2.2-26-1.6-53.4 0.6-49.2 2-54.6 18-70.4 13.6-13.6 25.4-18.4 45.6-18.4s32 4.8 45.6 18.4c16.4 16.4 17.4 20.4 17.4 76.4 0 46-0.2 49.6-4.4 58.4-5.6 12.2-20.2 26.8-32.2 32-13.2 6-34.4 6.8-47.6 2zM69 827l-5-4.8v-812.4l5-4.8 4.8-5h876.4l4.8 5 5 4.8v812.4l-5 4.8-4.8 5h-118l-1.2-97.2-6.6-13.2c-18-36.6-68.4-57.6-111.4-46.6-29.8 7.8-55.6 26.6-66.6 48.8-5.4 11.2-5.4 11.4-6 59.8l-0.6 48.4h-255.6l-0.6-48.4c-0.6-48.2-0.6-48.6-6-59.6-7.4-15.2-15.6-24.2-29.6-33.6-18.8-12.6-35-17.4-60-17.4s-41.2 4.8-60 17.4c-14 9.4-22.2 18.4-29.6 33.6-5.4 11-5.4 11.4-6 59.6l-0.6 48.4h-118l-4.8-5zM864 352v-256h-704v512h704v-256zM330 540.6c0-15.8-14-34-30.8-40.4-11.2-4.2-35.8-8.2-50.4-8.2h-8.8v-62h80v-198h-80v-66h254v66h-80v312h-42c-38.6 0-42-0.2-42-3.4zM534 437v-107h5.6c3 0 16.2 2.4 29.4 5.4 20.4 4.6 28.8 5.4 56 5.4 51.2 0.2 74-8 85.6-30.6 9.6-19.2 6.8-40.4-7.2-55.8-10-10.6-20-15.6-40.6-19.4-37-7.2-73.8-0.6-117.2 21.2-8.6 4.4-17.8 7.8-20.6 7.8h-5v-83.6l15.6-5.2c39.6-13 80.2-18.4 124.4-16.6 67.2 3 115.2 28 138.4 72.6 9.6 18.6 13.4 32.2 15 53.8 3.4 51.4-16.8 89.4-57.8 109-29 13.8-57 18.8-100.4 17.6l-27.2-0.6v61h176v72h-270v-107z" />
<glyph unicode="&#xe90f;" glyph-name="calendar16" d="M273 894.2c-18.4-4.8-34.6-18-43-35.2-5-9.8-5-10.8-5-59s0-49.2 5-59c6.2-12.8 18.4-24.8 31-31 14.4-6.8 39.6-6.8 54 0 12.8 6.2 26 19.6 31.6 31.6 4.2 8.8 4.4 12.4 4.4 58.4s-0.2 49.6-4.4 58.4c-5.6 12.2-20.4 26.8-32.2 32-10 4.6-31.4 6.4-41.4 3.8zM714.8 892.4c-20-7.2-36.4-25.2-40.8-45-1.6-6.6-2.2-26-1.6-53.4 0.6-49.2 2-54.6 18-70.4 13.6-13.6 25.4-18.4 45.6-18.4s32 4.8 45.6 18.4c16.4 16.4 17.4 20.4 17.4 76.4 0 46-0.2 49.6-4.4 58.4-5.6 12.2-20.2 26.8-32.2 32-13.2 6-34.4 6.8-47.6 2zM69 827l-5-4.8v-812.4l5-4.8 4.8-5h876.4l4.8 5 5 4.8v812.4l-5 4.8-4.8 5h-118l-1.2-97.2-6.6-13.2c-18-36.6-68.4-57.6-111.4-46.6-29.8 7.8-55.6 26.6-66.6 48.8-5.4 11.2-5.4 11.4-6 59.8l-0.6 48.4h-255.6l-0.6-48.4c-0.6-48.2-0.6-48.6-6-59.6-7.4-15.2-15.6-24.2-29.6-33.6-18.8-12.6-35-17.4-60-17.4s-41.2 4.8-60 17.4c-14 9.4-22.2 18.4-29.6 33.6-5.4 11-5.4 11.4-6 59.6l-0.6 48.4h-118l-4.8-5zM864 352v-256h-704v512h704v-256zM690 550.8c-2.8-0.4-11.8-1.8-20-3-66-9.8-117-49-140.6-108.2-19.6-48.6-23-126-8-177.6 18.6-64.6 65-99.4 137.6-103.4 77.6-4.2 135.8 30.4 156.2 92.6 5.2 16 5.8 20.4 5.8 43.8 0 37-5.6 56-23.4 80.2-11.2 15-30.8 28.4-52.6 36-14.6 5.2-18.6 5.6-45 5.6-27.6 0-30-0.2-48-6.6-10.4-3.6-23.8-9-29.8-12.2l-10.8-6 1.2 8.8c3.2 22.8 20.2 50.8 38.4 62.8 28.6 19 76 23.8 114 11.6 8.8-2.8 18-5.2 20.6-5.2h4.4v38c0 21-0.6 38-1.4 38-1 0-12.4 1.4-25.6 3-21.8 2.6-60.6 3.6-73 1.8zM688 347.8c25.6-9 37.8-31.6 35.4-66-1.2-17.4-5.8-29.6-15.4-40.6-18.2-20.8-51.6-22.8-71.6-4.4-17.4 16-24.2 36.6-25.8 77.4l-1.2 29.2 8.8 2.2c20.4 5.6 25.8 6.2 43.8 5.4 10.4-0.4 22.2-1.8 26-3.2zM330 540.6c0-15.8-14-34-30.8-40.4-11.2-4.2-35.8-8.2-50.4-8.2h-8.8v-62h80v-198h-80v-66h254v66h-80v312h-42c-38.6 0-42-0.2-42-3.4z" />
<glyph unicode="&#xe910;" glyph-name="calendar17" d="M273 894.2c-18.4-4.8-34.6-18-43-35.2-5-9.8-5-10.8-5-59s0-49.2 5-59c6.2-12.8 18.4-24.8 31-31 14.4-6.8 39.6-6.8 54 0 12.8 6.2 26 19.6 31.6 31.6 4.2 8.8 4.4 12.4 4.4 58.4s-0.2 49.6-4.4 58.4c-5.6 12.2-20.4 26.8-32.2 32-10 4.6-31.4 6.4-41.4 3.8zM714.8 892.4c-20-7.2-36.4-25.2-40.8-45-1.6-6.6-2.2-26-1.6-53.4 0.6-49.2 2-54.6 18-70.4 13.6-13.6 25.4-18.4 45.6-18.4s32 4.8 45.6 18.4c16.4 16.4 17.4 20.4 17.4 76.4 0 46-0.2 49.6-4.4 58.4-5.6 12.2-20.2 26.8-32.2 32-13.2 6-34.4 6.8-47.6 2zM69 827l-5-4.8v-812.4l5-4.8 4.8-5h876.4l4.8 5 5 4.8v812.4l-5 4.8-4.8 5h-118l-1.2-97.2-6.6-13.2c-18-36.6-68.4-57.6-111.4-46.6-29.8 7.8-55.6 26.6-66.6 48.8-5.4 11.2-5.4 11.4-6 59.8l-0.6 48.4h-255.6l-0.6-48.4c-0.6-48.2-0.6-48.6-6-59.6-7.4-15.2-15.6-24.2-29.6-33.6-18.8-12.6-35-17.4-60-17.4s-41.2 4.8-60 17.4c-14 9.4-22.2 18.4-29.6 33.6-5.4 11-5.4 11.4-6 59.6l-0.6 48.4h-118l-4.8-5zM864 352v-256h-704v512h704v-256zM330 540.6c0-15.8-14-34-30.8-40.4-11.2-4.2-35.8-8.2-50.4-8.2h-8.8v-62h80v-198h-80v-66h254v66h-80v312h-42c-38.6 0-42-0.2-42-3.4zM518 508v-36l96.6-0.4 96.6-0.6-86.6-149c-47.8-82-87.6-150.6-88.8-152.6-1.8-3.2 1.2-3.4 52.6-3.4h54.6l85.6 151.6 85.4 151.6v74.8h-296v-36z" />
<glyph unicode="&#xe911;" glyph-name="calendar18" d="M273 894.2c-18.4-4.8-34.6-18-43-35.2-5-9.8-5-10.8-5-59s0-49.2 5-59c6.2-12.8 18.4-24.8 31-31 14.4-6.8 39.6-6.8 54 0 12.8 6.2 26 19.6 31.6 31.6 4.2 8.8 4.4 12.4 4.4 58.4s-0.2 49.6-4.4 58.4c-5.6 12.2-20.4 26.8-32.2 32-10 4.6-31.4 6.4-41.4 3.8zM714.8 892.4c-20-7.2-36.4-25.2-40.8-45-1.6-6.6-2.2-26-1.6-53.4 0.6-49.2 2-54.6 18-70.4 13.6-13.6 25.4-18.4 45.6-18.4s32 4.8 45.6 18.4c16.4 16.4 17.4 20.4 17.4 76.4 0 46-0.2 49.6-4.4 58.4-5.6 12.2-20.2 26.8-32.2 32-13.2 6-34.4 6.8-47.6 2zM69 827l-5-4.8v-812.4l5-4.8 4.8-5h876.4l4.8 5 5 4.8v812.4l-5 4.8-4.8 5h-118l-1.2-97.2-6.6-13.2c-18-36.6-68.4-57.6-111.4-46.6-29.8 7.8-55.6 26.6-66.6 48.8-5.4 11.2-5.4 11.4-6 59.8l-0.6 48.4h-255.6l-0.6-48.4c-0.6-48.2-0.6-48.6-6-59.6-7.4-15.2-15.6-24.2-29.6-33.6-18.8-12.6-35-17.4-60-17.4s-41.2 4.8-60 17.4c-14 9.4-22.2 18.4-29.6 33.6-5.4 11-5.4 11.4-6 59.6l-0.6 48.4h-118l-4.8-5zM864 352v-256h-704v512h704v-256zM624 549c-66.8-11-109.8-49.6-110-98.2 0-36 18-67 49.6-84.8 6.8-3.8 12.2-7.4 12.4-8 0-0.6-7.6-5-17-9.8-34.8-18.2-52.2-41.6-54.4-73.4-2-30 7.4-55.4 28.2-75.8 18-17.8 46-31.2 78.2-37 20.2-3.6 60.4-4.8 82.8-2.2 43.4 5.2 73.8 18 97.6 41.4 22.8 22.4 32.2 47.2 30 79-3 38.6-22.6 65.2-63 85.6-11 5.6-14.6 10.2-8 10.2 3.6 0 26.2 14.6 35 22.6 33.8 31.2 35.4 82.4 3.2 113.8-17.6 17.2-44.2 29.8-75.6 35.6-19.4 3.6-69.6 4.2-89 1zM685.4 483c14.2-4.2 23-10.6 28.2-21 8-16 4.6-38.6-8.8-56.8-8.4-11.4-8-11.4-42 1-23.4 8.4-39 17.4-45.4 26-5.6 7.8-6.6 21.6-2.4 30.6 8.8 18.4 43.2 28.2 70.4 20.2zM685.6 312.8c10.2-4.6 21.2-10.6 24.6-13 12-8.6 17.4-31.4 11-46.4-9.6-22.6-45.2-34.8-77.2-26.6-48.6 12.4-60.8 60.2-25.4 100.4l7.6 8.6 20.4-7.2c11.2-3.8 28.8-11 39-15.8zM330 540.6c0-15.8-14-34-30.8-40.4-11.2-4.2-35.8-8.2-50.4-8.2h-8.8v-62h80v-198h-80v-66h254v66h-80v312h-42c-38.6 0-42-0.2-42-3.4z" />
<glyph unicode="&#xe912;" glyph-name="calendar19" d="M273 894.2c-18.4-4.8-34.6-18-43-35.2-5-9.8-5-10.8-5-59s0-49.2 5-59c6.2-12.8 18.4-24.8 31-31 14.4-6.8 39.6-6.8 54 0 12.8 6.2 26 19.6 31.6 31.6 4.2 8.8 4.4 12.4 4.4 58.4s-0.2 49.6-4.4 58.4c-5.6 12.2-20.4 26.8-32.2 32-10 4.6-31.4 6.4-41.4 3.8zM714.8 892.4c-20-7.2-36.4-25.2-40.8-45-1.6-6.6-2.2-26-1.6-53.4 0.6-49.2 2-54.6 18-70.4 13.6-13.6 25.4-18.4 45.6-18.4s32 4.8 45.6 18.4c16.4 16.4 17.4 20.4 17.4 76.4 0 46-0.2 49.6-4.4 58.4-5.6 12.2-20.2 26.8-32.2 32-13.2 6-34.4 6.8-47.6 2zM69 827l-5-4.8v-812.4l5-4.8 4.8-5h876.4l4.8 5 5 4.8v812.4l-5 4.8-4.8 5h-118l-1.2-97.2-6.6-13.2c-18-36.6-68.4-57.6-111.4-46.6-29.8 7.8-55.6 26.6-66.6 48.8-5.4 11.2-5.4 11.4-6 59.8l-0.6 48.4h-255.6l-0.6-48.4c-0.6-48.2-0.6-48.6-6-59.6-7.4-15.2-15.6-24.2-29.6-33.6-18.8-12.6-35-17.4-60-17.4s-41.2 4.8-60 17.4c-14 9.4-22.2 18.4-29.6 33.6-5.4 11-5.4 11.4-6 59.6l-0.6 48.4h-118l-4.8-5zM864 352v-256h-704v512h704v-256zM622.6 549.2c-35-6.6-57.4-18-79.8-40.2-25.6-25.4-36.2-49.6-38.2-86.8-3.4-64.6 26.8-110 83.6-125.6 9.2-2.6 20.2-3.6 39.8-3.6 30.8 0 43.4 3 70.6 16.8 8.4 4.2 15.4 6.8 15.4 5.8 0-6.2-7.2-28.2-12.4-38.2-7.6-14-25.6-31.2-40-38-27.2-12.8-72.2-15-101.8-4.6-25.6 8.8-23.8 11.4-23.8-32.6v-37.6l6.2-1.4c17.4-3.4 55.4-5.6 78.8-4.4 73 3.4 126.4 30.2 158 79 40.6 62.8 47 178.4 13.4 243.2-11 21.4-34.6 44.2-56.4 54.6-9.4 4.4-23.8 9.6-32 11.4-19.8 4.6-62.6 5.8-81.4 2.2zM675 482.8c5.4-2 13-6.8 17.2-11 15.6-15.6 21.6-35 23.2-75.2l1.2-28.6-6.8-2.8c-18.8-7.6-54.2-9-71.8-3-25.6 8.8-38 31.8-35.4 65.6 3.2 42.4 36 67.2 72.4 55zM330 540.6c0-15.8-14-34-30.8-40.4-11.2-4.2-35.8-8.2-50.4-8.2h-8.8v-62h80v-198h-80v-66h254v66h-80v312h-42c-38.6 0-42-0.2-42-3.4z" />
<glyph unicode="&#xe913;" glyph-name="calendar20" d="M273 894.2c-18.4-4.8-34.6-18-43-35.2-5-9.8-5-10.8-5-59s0-49.2 5-59c6.2-12.8 18.4-24.8 31-31 14.4-6.8 39.6-6.8 54 0 12.8 6.2 26 19.6 31.6 31.6 4.2 8.8 4.4 12.4 4.4 58.4s-0.2 49.6-4.4 58.4c-5.6 12.2-20.4 26.8-32.2 32-10 4.6-31.4 6.4-41.4 3.8zM714.8 892.4c-20-7.2-36.4-25.2-40.8-45-1.6-6.6-2.2-26-1.6-53.4 0.6-49.2 2-54.6 18-70.4 13.6-13.6 25.4-18.4 45.6-18.4s32 4.8 45.6 18.4c16.4 16.4 17.4 20.4 17.4 76.4 0 46-0.2 49.6-4.4 58.4-5.6 12.2-20.2 26.8-32.2 32-13.2 6-34.4 6.8-47.6 2zM69 827l-5-4.8v-812.4l5-4.8 4.8-5h876.4l4.8 5 5 4.8v812.4l-5 4.8-4.8 5h-118l-1.2-97.2-6.6-13.2c-18-36.6-68.4-57.6-111.4-46.6-29.8 7.8-55.6 26.6-66.6 48.8-5.4 11.2-5.4 11.4-6 59.8l-0.6 48.4h-255.6l-0.6-48.4c-0.6-48.2-0.6-48.6-6-59.6-7.4-15.2-15.6-24.2-29.6-33.6-18.8-12.6-35-17.4-60-17.4s-41.2 4.8-60 17.4c-14 9.4-22.2 18.4-29.6 33.6-5.4 11-5.4 11.4-6 59.6l-0.6 48.4h-118l-4.8-5zM864 352v-256h-704v512h704v-256zM298.8 549c-21.2-3-61.8-12.8-73.8-17.8l-7-3v-42c0-48.8-0.6-47.8 19.8-35.4 29.2 17.8 67.6 28.6 94 26.6 36.2-2.6 55.4-18.8 57.8-48.6 3.4-44-37.8-92.6-151-178.2l-30.6-23v-61.6h298v72h-170.4l22.6 17.2c105 79.6 141.6 140.2 126.8 209.8-8.8 41-39 69.2-87 81-22.6 5.6-71 7-99.2 3zM637 550c-57.2-9-95.2-43.2-111.6-100-8.2-28.4-10.4-49.4-10.2-97 0-49.4 3-72 12.8-101.4 8.2-24.4 16.6-38.4 32.8-54.8 16.2-16.2 34.4-26.6 59-33.2 12.8-3.6 20.8-4.2 51.2-4.2 30.6 0 38.4 0.6 51.6 4.2 23.8 6.6 40.6 15.6 56.4 30.8 17.2 16.2 25.6 30 34.2 55.2 11 32.6 13.6 53.2 13.6 105.4 0 48.4-2.4 70.4-11.2 99-14.6 47.6-47.6 80.2-93 92.2-18 4.8-65.8 6.8-85.6 3.8zM696.4 475.4c24.4-14.2 32.6-45.2 32.6-121.4-0.2-66-6.6-95-24.6-112.6-18.2-17.6-48.6-17.6-66.8 0-18 17.6-24.4 46.6-24.6 112.6 0 84.2 10.6 115.8 42.6 126.2 10.2 3.2 31.4 0.8 40.8-4.8z" />
<glyph unicode="&#xe914;" glyph-name="calendar21" d="M273 894.2c-18.4-4.8-34.6-18-43-35.2-5-9.8-5-10.8-5-59s0-49.2 5-59c6.2-12.8 18.4-24.8 31-31 14.4-6.8 39.6-6.8 54 0 12.8 6.2 26 19.6 31.6 31.6 4.2 8.8 4.4 12.4 4.4 58.4s-0.2 49.6-4.4 58.4c-5.6 12.2-20.4 26.8-32.2 32-10 4.6-31.4 6.4-41.4 3.8zM714.8 892.4c-20-7.2-36.4-25.2-40.8-45-1.6-6.6-2.2-26-1.6-53.4 0.6-49.2 2-54.6 18-70.4 13.6-13.6 25.4-18.4 45.6-18.4s32 4.8 45.6 18.4c16.4 16.4 17.4 20.4 17.4 76.4 0 46-0.2 49.6-4.4 58.4-5.6 12.2-20.2 26.8-32.2 32-13.2 6-34.4 6.8-47.6 2zM69 827l-5-4.8v-812.4l5-4.8 4.8-5h876.4l4.8 5 5 4.8v812.4l-5 4.8-4.8 5h-118l-1.2-97.2-6.6-13.2c-18-36.6-68.4-57.6-111.4-46.6-29.8 7.8-55.6 26.6-66.6 48.8-5.4 11.2-5.4 11.4-6 59.8l-0.6 48.4h-255.6l-0.6-48.4c-0.6-48.2-0.6-48.6-6-59.6-7.4-15.2-15.6-24.2-29.6-33.6-18.8-12.6-35-17.4-60-17.4s-41.2 4.8-60 17.4c-14 9.4-22.2 18.4-29.6 33.6-5.4 11-5.4 11.4-6 59.6l-0.6 48.4h-118l-4.8-5zM864 352v-256h-704v512h704v-256zM298.8 549c-21.2-3-61.8-12.8-73.8-17.8l-7-3v-42c0-48.8-0.6-47.8 19.8-35.4 29.2 17.8 67.6 28.6 94 26.6 36.2-2.6 55.4-18.8 57.8-48.6 3.4-44-37.8-92.6-151-178.2l-30.6-23v-61.6h298v72h-170.4l22.6 17.2c105 79.6 141.6 140.2 126.8 209.8-8.8 41-39 69.2-87 81-22.6 5.6-71 7-99.2 3zM644 540.6c0-15.8-14-34-30.8-40.4-11.2-4.2-35.8-8.2-50.4-8.2h-8.8v-62h80v-198h-80v-66h254v66h-80v312h-42c-38.6 0-42-0.2-42-3.4z" />
<glyph unicode="&#xe915;" glyph-name="calendar22" d="M273 894.2c-18.4-4.8-34.6-18-43-35.2-5-9.8-5-10.8-5-59s0-49.2 5-59c6.2-12.8 18.4-24.8 31-31 14.4-6.8 39.6-6.8 54 0 12.8 6.2 26 19.6 31.6 31.6 4.2 8.8 4.4 12.4 4.4 58.4s-0.2 49.6-4.4 58.4c-5.6 12.2-20.4 26.8-32.2 32-10 4.6-31.4 6.4-41.4 3.8zM714.8 892.4c-20-7.2-36.4-25.2-40.8-45-1.6-6.6-2.2-26-1.6-53.4 0.6-49.2 2-54.6 18-70.4 13.6-13.6 25.4-18.4 45.6-18.4s32 4.8 45.6 18.4c16.4 16.4 17.4 20.4 17.4 76.4 0 46-0.2 49.6-4.4 58.4-5.6 12.2-20.2 26.8-32.2 32-13.2 6-34.4 6.8-47.6 2zM69 827l-5-4.8v-812.4l5-4.8 4.8-5h876.4l4.8 5 5 4.8v812.4l-5 4.8-4.8 5h-118l-1.2-97.2-6.6-13.2c-18-36.6-68.4-57.6-111.4-46.6-29.8 7.8-55.6 26.6-66.6 48.8-5.4 11.2-5.4 11.4-6 59.8l-0.6 48.4h-255.6l-0.6-48.4c-0.6-48.2-0.6-48.6-6-59.6-7.4-15.2-15.6-24.2-29.6-33.6-18.8-12.6-35-17.4-60-17.4s-41.2 4.8-60 17.4c-14 9.4-22.2 18.4-29.6 33.6-5.4 11-5.4 11.4-6 59.6l-0.6 48.4h-118l-4.8-5zM864 352v-256h-704v512h704v-256zM298.8 549c-21.2-3-61.8-12.8-73.8-17.8l-7-3v-42c0-48.8-0.6-47.8 19.8-35.4 29.2 17.8 67.6 28.6 94 26.6 36.2-2.6 55.4-18.8 57.8-48.6 3.4-44-37.8-92.6-151-178.2l-30.6-23v-61.6h298v72h-170.4l22.6 17.2c105 79.6 141.6 140.2 126.8 209.8-8.8 41-39 69.2-87 81-22.6 5.6-71 7-99.2 3zM622.8 549c-21.2-3-61.8-12.8-73.8-17.8l-7-3v-42c0-48.8-0.6-47.8 19.8-35.4 29.2 17.8 67.6 28.6 94 26.6 36.2-2.6 55.4-18.8 57.8-48.6 3.4-44-37.8-92.6-151-178.2l-30.6-23v-61.6h298v72h-170.4l22.6 17.2c105 79.6 141.6 140.2 126.8 209.8-8.8 41-39 69.2-87 81-22.6 5.6-71 7-99.2 3z" />
<glyph unicode="&#xe916;" glyph-name="calendar23" d="M273 894.2c-18.4-4.8-34.6-18-43-35.2-5-9.8-5-10.8-5-59s0-49.2 5-59c6.2-12.8 18.4-24.8 31-31 14.4-6.8 39.6-6.8 54 0 12.8 6.2 26 19.6 31.6 31.6 4.2 8.8 4.4 12.4 4.4 58.4s-0.2 49.6-4.4 58.4c-5.6 12.2-20.4 26.8-32.2 32-10 4.6-31.4 6.4-41.4 3.8zM714.8 892.4c-20-7.2-36.4-25.2-40.8-45-1.6-6.6-2.2-26-1.6-53.4 0.6-49.2 2-54.6 18-70.4 13.6-13.6 25.4-18.4 45.6-18.4s32 4.8 45.6 18.4c16.4 16.4 17.4 20.4 17.4 76.4 0 46-0.2 49.6-4.4 58.4-5.6 12.2-20.2 26.8-32.2 32-13.2 6-34.4 6.8-47.6 2zM69 827l-5-4.8v-812.4l5-4.8 4.8-5h876.4l4.8 5 5 4.8v812.4l-5 4.8-4.8 5h-118l-1.2-97.2-6.6-13.2c-18-36.6-68.4-57.6-111.4-46.6-29.8 7.8-55.6 26.6-66.6 48.8-5.4 11.2-5.4 11.4-6 59.8l-0.6 48.4h-255.6l-0.6-48.4c-0.6-48.2-0.6-48.6-6-59.6-7.4-15.2-15.6-24.2-29.6-33.6-18.8-12.6-35-17.4-60-17.4s-41.2 4.8-60 17.4c-14 9.4-22.2 18.4-29.6 33.6-5.4 11-5.4 11.4-6 59.6l-0.6 48.4h-118l-4.8-5zM864 352v-256h-704v512h704v-256zM298.8 549c-21.2-3-61.8-12.8-73.8-17.8l-7-3v-42c0-48.8-0.6-47.8 19.8-35.4 29.2 17.8 67.6 28.6 94 26.6 36.2-2.6 55.4-18.8 57.8-48.6 3.4-44-37.8-92.6-151-178.2l-30.6-23v-61.6h298v72h-170.4l22.6 17.2c105 79.6 141.6 140.2 126.8 209.8-8.8 41-39 69.2-87 81-22.6 5.6-71 7-99.2 3zM623.2 549.8c-20.2-2.2-51.8-9-72.4-15.4l-17.8-5.6-0.6-41.4-0.4-41.4h4.6c2.4 0 10.4 3.2 17.6 7 17.8 9.4 51.2 20.2 71.6 23.2 19.4 2.8 46.4 1.4 61.6-3.2 18-5.4 28.6-17.4 28.6-32.4 0-13-3.6-22-11.6-28.6-11.6-9.6-23.4-12.2-60.8-13.4l-33.6-1.2v-65.4h30.6c46.6 0 65.8-5.6 75.8-21.6 3.8-6.2 4.6-10.2 4.6-24.8 0-16-0.4-17.8-6-26-7.8-11.2-22.2-20.6-35.4-23.6-40.4-8.8-88-1.4-132.6 20.2-8.6 4.4-17.8 7.8-20.4 7.8h-4.6l0.4-41.4 0.6-41.6 16.2-5.4c38.8-13 82.2-18.8 128.8-17 32.4 1.2 50.8 4.6 73.2 13.2 53 20.6 81.2 62.6 78.2 116.8-0.8 14.4-2 19.8-7.2 30.2-11 22.4-33.4 39.2-60.6 45.4-11.8 2.8-14.4 5-8 7 1.8 0.6 9.8 4.2 17.6 8 32 15.2 50.8 48.4 48.2 85.2-3.2 47.8-40.8 76.8-110.4 85.4-20.2 2.4-55 2.4-75.8 0z" />
<glyph unicode="&#xe917;" glyph-name="calendar24" d="M273 894.2c-18.4-4.8-34.6-18-43-35.2-5-9.8-5-10.8-5-59s0-49.2 5-59c6.2-12.8 18.4-24.8 31-31 14.4-6.8 39.6-6.8 54 0 12.8 6.2 26 19.6 31.6 31.6 4.2 8.8 4.4 12.4 4.4 58.4s-0.2 49.6-4.4 58.4c-5.6 12.2-20.4 26.8-32.2 32-10 4.6-31.4 6.4-41.4 3.8zM714.8 892.4c-20-7.2-36.4-25.2-40.8-45-1.6-6.6-2.2-26-1.6-53.4 0.6-49.2 2-54.6 18-70.4 13.6-13.6 25.4-18.4 45.6-18.4s32 4.8 45.6 18.4c16.4 16.4 17.4 20.4 17.4 76.4 0 46-0.2 49.6-4.4 58.4-5.6 12.2-20.2 26.8-32.2 32-13.2 6-34.4 6.8-47.6 2zM69 827l-5-4.8v-812.4l5-4.8 4.8-5h876.4l4.8 5 5 4.8v812.4l-5 4.8-4.8 5h-118l-1.2-97.2-6.6-13.2c-18-36.6-68.4-57.6-111.4-46.6-29.8 7.8-55.6 26.6-66.6 48.8-5.4 11.2-5.4 11.4-6 59.8l-0.6 48.4h-255.6l-0.6-48.4c-0.6-48.2-0.6-48.6-6-59.6-7.4-15.2-15.6-24.2-29.6-33.6-18.8-12.6-35-17.4-60-17.4s-41.2 4.8-60 17.4c-14 9.4-22.2 18.4-29.6 33.6-5.4 11-5.4 11.4-6 59.6l-0.6 48.4h-118l-4.8-5zM864 352v-256h-704v512h704v-256zM298.8 549c-21.2-3-61.8-12.8-73.8-17.8l-7-3v-42c0-48.8-0.6-47.8 19.8-35.4 29.2 17.8 67.6 28.6 94 26.6 36.2-2.6 55.4-18.8 57.8-48.6 3.4-44-37.8-92.6-151-178.2l-30.6-23v-61.6h298v72h-170.4l22.6 17.2c105 79.6 141.6 140.2 126.8 209.8-8.8 41-39 69.2-87 81-22.6 5.6-71 7-99.2 3zM627.4 473.6c-31.2-38.8-70.8-88.2-88-109.8l-31.4-39.2v-72.6h182v-88h94v88h52v70h-52v222h-99.8l-56.8-70.4zM690 390v-68h-54.2c-29.8 0-53.8 0.8-53.4 1.6 0.6 2 106.4 134.4 107.2 134.4 0.2 0 0.4-30.6 0.4-68z" />
<glyph unicode="&#xe918;" glyph-name="calendar25" d="M273 894.2c-18.4-4.8-34.6-18-43-35.2-5-9.8-5-10.8-5-59s0-49.2 5-59c6.2-12.8 18.4-24.8 31-31 14.4-6.8 39.6-6.8 54 0 12.8 6.2 26 19.6 31.6 31.6 4.2 8.8 4.4 12.4 4.4 58.4s-0.2 49.6-4.4 58.4c-5.6 12.2-20.4 26.8-32.2 32-10 4.6-31.4 6.4-41.4 3.8zM714.8 892.4c-20-7.2-36.4-25.2-40.8-45-1.6-6.6-2.2-26-1.6-53.4 0.6-49.2 2-54.6 18-70.4 13.6-13.6 25.4-18.4 45.6-18.4s32 4.8 45.6 18.4c16.4 16.4 17.4 20.4 17.4 76.4 0 46-0.2 49.6-4.4 58.4-5.6 12.2-20.2 26.8-32.2 32-13.2 6-34.4 6.8-47.6 2zM69 827l-5-4.8v-812.4l5-4.8 4.8-5h876.4l4.8 5 5 4.8v812.4l-5 4.8-4.8 5h-118l-1.2-97.2-6.6-13.2c-18-36.6-68.4-57.6-111.4-46.6-29.8 7.8-55.6 26.6-66.6 48.8-5.4 11.2-5.4 11.4-6 59.8l-0.6 48.4h-255.6l-0.6-48.4c-0.6-48.2-0.6-48.6-6-59.6-7.4-15.2-15.6-24.2-29.6-33.6-18.8-12.6-35-17.4-60-17.4s-41.2 4.8-60 17.4c-14 9.4-22.2 18.4-29.6 33.6-5.4 11-5.4 11.4-6 59.6l-0.6 48.4h-118l-4.8-5zM864 352v-256h-704v512h704v-256zM298.8 549c-21.2-3-61.8-12.8-73.8-17.8l-7-3v-42c0-48.8-0.6-47.8 19.8-35.4 29.2 17.8 67.6 28.6 94 26.6 36.2-2.6 55.4-18.8 57.8-48.6 3.4-44-37.8-92.6-151-178.2l-30.6-23v-61.6h298v72h-170.4l22.6 17.2c105 79.6 141.6 140.2 126.8 209.8-8.8 41-39 69.2-87 81-22.6 5.6-71 7-99.2 3zM542 437v-107h5.6c3 0 16.2 2.4 29.4 5.4 20.4 4.6 28.8 5.4 56 5.4 51.2 0.2 74-8 85.6-30.6 9.6-19.2 6.8-40.4-7.2-55.8-10-10.6-20-15.6-40.6-19.4-37-7.2-73.8-0.6-117.2 21.2-8.6 4.4-17.8 7.8-20.6 7.8h-5v-83.6l15.6-5.2c39.6-13 80.2-18.4 124.4-16.6 67.2 3 115.2 28 138.4 72.6 9.6 18.6 13.4 32.2 15 53.8 3.4 51.4-16.8 89.4-57.8 109-29 13.8-57 18.8-100.4 17.6l-27.2-0.6v61h176v72h-270v-107z" />
<glyph unicode="&#xe919;" glyph-name="calendar26" d="M273 894.2c-18.4-4.8-34.6-18-43-35.2-5-9.8-5-10.8-5-59s0-49.2 5-59c6.2-12.8 18.4-24.8 31-31 14.4-6.8 39.6-6.8 54 0 12.8 6.2 26 19.6 31.6 31.6 4.2 8.8 4.4 12.4 4.4 58.4s-0.2 49.6-4.4 58.4c-5.6 12.2-20.4 26.8-32.2 32-10 4.6-31.4 6.4-41.4 3.8zM714.8 892.4c-20-7.2-36.4-25.2-40.8-45-1.6-6.6-2.2-26-1.6-53.4 0.6-49.2 2-54.6 18-70.4 13.6-13.6 25.4-18.4 45.6-18.4s32 4.8 45.6 18.4c16.4 16.4 17.4 20.4 17.4 76.4 0 46-0.2 49.6-4.4 58.4-5.6 12.2-20.2 26.8-32.2 32-13.2 6-34.4 6.8-47.6 2zM69 827l-5-4.8v-812.4l5-4.8 4.8-5h876.4l4.8 5 5 4.8v812.4l-5 4.8-4.8 5h-118l-1.2-97.2-6.6-13.2c-18-36.6-68.4-57.6-111.4-46.6-29.8 7.8-55.6 26.6-66.6 48.8-5.4 11.2-5.4 11.4-6 59.8l-0.6 48.4h-255.6l-0.6-48.4c-0.6-48.2-0.6-48.6-6-59.6-7.4-15.2-15.6-24.2-29.6-33.6-18.8-12.6-35-17.4-60-17.4s-41.2 4.8-60 17.4c-14 9.4-22.2 18.4-29.6 33.6-5.4 11-5.4 11.4-6 59.6l-0.6 48.4h-118l-4.8-5zM864 352v-256h-704v512h704v-256zM298.8 549c-21.2-3-61.8-12.8-73.8-17.8l-7-3v-42c0-48.8-0.6-47.8 19.8-35.4 29.2 17.8 67.6 28.6 94 26.6 36.2-2.6 55.4-18.8 57.8-48.6 3.4-44-37.8-92.6-151-178.2l-30.6-23v-61.6h298v72h-170.4l22.6 17.2c105 79.6 141.6 140.2 126.8 209.8-8.8 41-39 69.2-87 81-22.6 5.6-71 7-99.2 3zM698 550.8c-2.8-0.4-11.8-1.8-20-3-66-9.8-117-49-140.6-108.2-19.6-48.6-23-126-8-177.6 18.6-64.6 65-99.4 137.6-103.4 77.6-4.2 135.8 30.4 156.2 92.6 5.2 16 5.8 20.4 5.8 43.8 0 37-5.6 56-23.4 80.2-11.2 15-30.8 28.4-52.6 36-14.6 5.2-18.6 5.6-45 5.6-27.6 0-30-0.2-48-6.6-10.4-3.6-23.8-9-29.8-12.2l-10.8-6 1.2 8.8c3.2 22.8 20.2 50.8 38.4 62.8 28.6 19 76 23.8 114 11.6 8.8-2.8 18-5.2 20.6-5.2h4.4v38c0 21-0.6 38-1.4 38-1 0-12.4 1.4-25.6 3-21.8 2.6-60.6 3.6-73 1.8zM696 347.8c25.6-9 37.8-31.6 35.4-66-1.2-17.4-5.8-29.6-15.4-40.6-18.2-20.8-51.6-22.8-71.6-4.4-17.4 16-24.2 36.6-25.8 77.4l-1.2 29.2 8.8 2.2c20.4 5.6 25.8 6.2 43.8 5.4 10.4-0.4 22.2-1.8 26-3.2z" />
<glyph unicode="&#xe91a;" glyph-name="calendar27" d="M273 894.2c-18.4-4.8-34.6-18-43-35.2-5-9.8-5-10.8-5-59s0-49.2 5-59c6.2-12.8 18.4-24.8 31-31 14.4-6.8 39.6-6.8 54 0 12.8 6.2 26 19.6 31.6 31.6 4.2 8.8 4.4 12.4 4.4 58.4s-0.2 49.6-4.4 58.4c-5.6 12.2-20.4 26.8-32.2 32-10 4.6-31.4 6.4-41.4 3.8zM714.8 892.4c-20-7.2-36.4-25.2-40.8-45-1.6-6.6-2.2-26-1.6-53.4 0.6-49.2 2-54.6 18-70.4 13.6-13.6 25.4-18.4 45.6-18.4s32 4.8 45.6 18.4c16.4 16.4 17.4 20.4 17.4 76.4 0 46-0.2 49.6-4.4 58.4-5.6 12.2-20.2 26.8-32.2 32-13.2 6-34.4 6.8-47.6 2zM69 827l-5-4.8v-812.4l5-4.8 4.8-5h876.4l4.8 5 5 4.8v812.4l-5 4.8-4.8 5h-118l-1.2-97.2-6.6-13.2c-18-36.6-68.4-57.6-111.4-46.6-29.8 7.8-55.6 26.6-66.6 48.8-5.4 11.2-5.4 11.4-6 59.8l-0.6 48.4h-255.6l-0.6-48.4c-0.6-48.2-0.6-48.6-6-59.6-7.4-15.2-15.6-24.2-29.6-33.6-18.8-12.6-35-17.4-60-17.4s-41.2 4.8-60 17.4c-14 9.4-22.2 18.4-29.6 33.6-5.4 11-5.4 11.4-6 59.6l-0.6 48.4h-118l-4.8-5zM864 352v-256h-704v512h704v-256zM298.8 549c-21.2-3-61.8-12.8-73.8-17.8l-7-3v-42c0-48.8-0.6-47.8 19.8-35.4 29.2 17.8 67.6 28.6 94 26.6 36.2-2.6 55.4-18.8 57.8-48.6 3.4-44-37.8-92.6-151-178.2l-30.6-23v-61.6h298v72h-170.4l22.6 17.2c105 79.6 141.6 140.2 126.8 209.8-8.8 41-39 69.2-87 81-22.6 5.6-71 7-99.2 3zM526 508v-36l96.6-0.4 96.6-0.6-86.6-149c-47.8-82-87.6-150.6-88.8-152.6-1.8-3.2 1.2-3.4 52.6-3.4h54.6l85.6 151.6 85.4 151.6v74.8h-296v-36z" />
<glyph unicode="&#xe91b;" glyph-name="calendar28" d="M273 894.2c-18.4-4.8-34.6-18-43-35.2-5-9.8-5-10.8-5-59s0-49.2 5-59c6.2-12.8 18.4-24.8 31-31 14.4-6.8 39.6-6.8 54 0 12.8 6.2 26 19.6 31.6 31.6 4.2 8.8 4.4 12.4 4.4 58.4s-0.2 49.6-4.4 58.4c-5.6 12.2-20.4 26.8-32.2 32-10 4.6-31.4 6.4-41.4 3.8zM714.8 892.4c-20-7.2-36.4-25.2-40.8-45-1.6-6.6-2.2-26-1.6-53.4 0.6-49.2 2-54.6 18-70.4 13.6-13.6 25.4-18.4 45.6-18.4s32 4.8 45.6 18.4c16.4 16.4 17.4 20.4 17.4 76.4 0 46-0.2 49.6-4.4 58.4-5.6 12.2-20.2 26.8-32.2 32-13.2 6-34.4 6.8-47.6 2zM69 827l-5-4.8v-812.4l5-4.8 4.8-5h876.4l4.8 5 5 4.8v812.4l-5 4.8-4.8 5h-118l-1.2-97.2-6.6-13.2c-18-36.6-68.4-57.6-111.4-46.6-29.8 7.8-55.6 26.6-66.6 48.8-5.4 11.2-5.4 11.4-6 59.8l-0.6 48.4h-255.6l-0.6-48.4c-0.6-48.2-0.6-48.6-6-59.6-7.4-15.2-15.6-24.2-29.6-33.6-18.8-12.6-35-17.4-60-17.4s-41.2 4.8-60 17.4c-14 9.4-22.2 18.4-29.6 33.6-5.4 11-5.4 11.4-6 59.6l-0.6 48.4h-118l-4.8-5zM864 352v-256h-704v512h704v-256zM298.8 549c-21.2-3-61.8-12.8-73.8-17.8l-7-3v-42c0-48.8-0.6-47.8 19.8-35.4 29.2 17.8 67.6 28.6 94 26.6 36.2-2.6 55.4-18.8 57.8-48.6 3.4-44-37.8-92.6-151-178.2l-30.6-23v-61.6h298v72h-170.4l22.6 17.2c105 79.6 141.6 140.2 126.8 209.8-8.8 41-39 69.2-87 81-22.6 5.6-71 7-99.2 3zM632 549c-66.8-11-109.8-49.6-110-98.2 0-36 18-67 49.6-84.8 6.8-3.8 12.2-7.4 12.4-8 0-0.6-7.6-5-17-9.8-34.8-18.2-52.2-41.6-54.4-73.4-2-30 7.4-55.4 28.2-75.8 18-17.8 46-31.2 78.2-37 20.2-3.6 60.4-4.8 82.8-2.2 43.4 5.2 73.8 18 97.6 41.4 22.8 22.4 32.2 47.2 30 79-3 38.6-22.6 65.2-63 85.6-11 5.6-14.6 10.2-8 10.2 3.6 0 26.2 14.6 35 22.6 33.8 31.2 35.4 82.4 3.2 113.8-17.6 17.2-44.2 29.8-75.6 35.6-19.4 3.6-69.6 4.2-89 1zM693.4 483c14.2-4.2 23-10.6 28.2-21 8-16 4.6-38.6-8.8-56.8-8.4-11.4-8-11.4-42 1-23.4 8.4-39 17.4-45.4 26-5.6 7.8-6.6 21.6-2.4 30.6 8.8 18.4 43.2 28.2 70.4 20.2zM693.6 312.8c10.2-4.6 21.2-10.6 24.6-13 12-8.6 17.4-31.4 11-46.4-9.6-22.6-45.2-34.8-77.2-26.6-48.6 12.4-60.8 60.2-25.4 100.4l7.6 8.6 20.4-7.2c11.2-3.8 28.8-11 39-15.8z" />
<glyph unicode="&#xe91c;" glyph-name="calendar29" d="M273 894.2c-18.4-4.8-34.6-18-43-35.2-5-9.8-5-10.8-5-59s0-49.2 5-59c6.2-12.8 18.4-24.8 31-31 14.4-6.8 39.6-6.8 54 0 12.8 6.2 26 19.6 31.6 31.6 4.2 8.8 4.4 12.4 4.4 58.4s-0.2 49.6-4.4 58.4c-5.6 12.2-20.4 26.8-32.2 32-10 4.6-31.4 6.4-41.4 3.8zM714.8 892.4c-20-7.2-36.4-25.2-40.8-45-1.6-6.6-2.2-26-1.6-53.4 0.6-49.2 2-54.6 18-70.4 13.6-13.6 25.4-18.4 45.6-18.4s32 4.8 45.6 18.4c16.4 16.4 17.4 20.4 17.4 76.4 0 46-0.2 49.6-4.4 58.4-5.6 12.2-20.2 26.8-32.2 32-13.2 6-34.4 6.8-47.6 2zM69 827l-5-4.8v-812.4l5-4.8 4.8-5h876.4l4.8 5 5 4.8v812.4l-5 4.8-4.8 5h-118l-1.2-97.2-6.6-13.2c-18-36.6-68.4-57.6-111.4-46.6-29.8 7.8-55.6 26.6-66.6 48.8-5.4 11.2-5.4 11.4-6 59.8l-0.6 48.4h-255.6l-0.6-48.4c-0.6-48.2-0.6-48.6-6-59.6-7.4-15.2-15.6-24.2-29.6-33.6-18.8-12.6-35-17.4-60-17.4s-41.2 4.8-60 17.4c-14 9.4-22.2 18.4-29.6 33.6-5.4 11-5.4 11.4-6 59.6l-0.6 48.4h-118l-4.8-5zM864 352v-256h-704v512h704v-256zM298.8 549c-21.2-3-61.8-12.8-73.8-17.8l-7-3v-42c0-48.8-0.6-47.8 19.8-35.4 29.2 17.8 67.6 28.6 94 26.6 36.2-2.6 55.4-18.8 57.8-48.6 3.4-44-37.8-92.6-151-178.2l-30.6-23v-61.6h298v72h-170.4l22.6 17.2c105 79.6 141.6 140.2 126.8 209.8-8.8 41-39 69.2-87 81-22.6 5.6-71 7-99.2 3zM630.6 549.2c-35-6.6-57.4-18-79.8-40.2-25.6-25.4-36.2-49.6-38.2-86.8-3.4-64.6 26.8-110 83.6-125.6 9.2-2.6 20.2-3.6 39.8-3.6 30.8 0 43.4 3 70.6 16.8 8.4 4.2 15.4 6.8 15.4 5.8 0-6.2-7.2-28.2-12.4-38.2-7.6-14-25.6-31.2-40-38-27.2-12.8-72.2-15-101.8-4.6-25.6 8.8-23.8 11.4-23.8-32.6v-37.6l6.2-1.4c17.4-3.4 55.4-5.6 78.8-4.4 73 3.4 126.4 30.2 158 79 40.6 62.8 47 178.4 13.4 243.2-11 21.4-34.6 44.2-56.4 54.6-9.4 4.4-23.8 9.6-32 11.4-19.8 4.6-62.6 5.8-81.4 2.2zM683 482.8c5.4-2 13-6.8 17.2-11 15.6-15.6 21.6-35 23.2-75.2l1.2-28.6-6.8-2.8c-18.8-7.6-54.2-9-71.8-3-25.6 8.8-38 31.8-35.4 65.6 3.2 42.4 36 67.2 72.4 55z" />
<glyph unicode="&#xe91d;" glyph-name="calendar30" d="M273 894.2c-18.4-4.8-34.6-18-43-35.2-5-9.8-5-10.8-5-59s0-49.2 5-59c6.2-12.8 18.4-24.8 31-31 14.4-6.8 39.6-6.8 54 0 12.8 6.2 26 19.6 31.6 31.6 4.2 8.8 4.4 12.4 4.4 58.4s-0.2 49.6-4.4 58.4c-5.6 12.2-20.4 26.8-32.2 32-10 4.6-31.4 6.4-41.4 3.8zM714.8 892.4c-20-7.2-36.4-25.2-40.8-45-1.6-6.6-2.2-26-1.6-53.4 0.6-49.2 2-54.6 18-70.4 13.6-13.6 25.4-18.4 45.6-18.4s32 4.8 45.6 18.4c16.4 16.4 17.4 20.4 17.4 76.4 0 46-0.2 49.6-4.4 58.4-5.6 12.2-20.2 26.8-32.2 32-13.2 6-34.4 6.8-47.6 2zM69 827l-5-4.8v-812.4l5-4.8 4.8-5h876.4l4.8 5 5 4.8v812.4l-5 4.8-4.8 5h-118l-1.2-97.2-6.6-13.2c-18-36.6-68.4-57.6-111.4-46.6-29.8 7.8-55.6 26.6-66.6 48.8-5.4 11.2-5.4 11.4-6 59.8l-0.6 48.4h-255.6l-0.6-48.4c-0.6-48.2-0.6-48.6-6-59.6-7.4-15.2-15.6-24.2-29.6-33.6-18.8-12.6-35-17.4-60-17.4s-41.2 4.8-60 17.4c-14 9.4-22.2 18.4-29.6 33.6-5.4 11-5.4 11.4-6 59.6l-0.6 48.4h-118l-4.8-5zM864 352v-256h-704v512h704v-256zM299.2 549.8c-20.2-2.2-51.8-9-72.4-15.4l-17.8-5.6-0.6-41.4-0.4-41.4h4.6c2.4 0 10.4 3.2 17.6 7 17.8 9.4 51.2 20.2 71.6 23.2 19.4 2.8 46.4 1.4 61.6-3.2 18-5.4 28.6-17.4 28.6-32.4 0-13-3.6-22-11.6-28.6-11.6-9.6-23.4-12.2-60.8-13.4l-33.6-1.2v-65.4h30.6c46.6 0 65.8-5.6 75.8-21.6 3.8-6.2 4.6-10.2 4.6-24.8 0-16-0.4-17.8-6-26-7.8-11.2-22.2-20.6-35.4-23.6-40.4-8.8-88-1.4-132.6 20.2-8.6 4.4-17.8 7.8-20.4 7.8h-4.6l0.4-41.4 0.6-41.6 16.2-5.4c38.8-13 82.2-18.8 128.8-17 32.4 1.2 50.8 4.6 73.2 13.2 53 20.6 81.2 62.6 78.2 116.8-0.8 14.4-2 19.8-7.2 30.2-11 22.4-33.4 39.2-60.6 45.4-11.8 2.8-14.4 5-8 7 1.8 0.6 9.8 4.2 17.6 8 32 15.2 50.8 48.4 48.2 85.2-3.2 47.8-40.8 76.8-110.4 85.4-20.2 2.4-55 2.4-75.8 0zM637 550c-57.2-9-95.2-43.2-111.6-100-8.2-28.4-10.4-49.4-10.2-97 0-49.4 3-72 12.8-101.4 8.2-24.4 16.6-38.4 32.8-54.8 16.2-16.2 34.4-26.6 59-33.2 12.8-3.6 20.8-4.2 51.2-4.2 30.6 0 38.4 0.6 51.6 4.2 23.8 6.6 40.6 15.6 56.4 30.8 17.2 16.2 25.6 30 34.2 55.2 11 32.6 13.6 53.2 13.6 105.4 0 48.4-2.4 70.4-11.2 99-14.6 47.6-47.6 80.2-93 92.2-18 4.8-65.8 6.8-85.6 3.8zM696.4 475.4c24.4-14.2 32.6-45.2 32.6-121.4-0.2-66-6.6-95-24.6-112.6-18.2-17.6-48.6-17.6-66.8 0-18 17.6-24.4 46.6-24.6 112.6 0 84.2 10.6 115.8 42.6 126.2 10.2 3.2 31.4 0.8 40.8-4.8z" />
<glyph unicode="&#xe91e;" glyph-name="calendar31" d="M273 894.2c-18.4-4.8-34.6-18-43-35.2-5-9.8-5-10.8-5-59s0-49.2 5-59c6.2-12.8 18.4-24.8 31-31 14.4-6.8 39.6-6.8 54 0 12.8 6.2 26 19.6 31.6 31.6 4.2 8.8 4.4 12.4 4.4 58.4s-0.2 49.6-4.4 58.4c-5.6 12.2-20.4 26.8-32.2 32-10 4.6-31.4 6.4-41.4 3.8zM714.8 892.4c-20-7.2-36.4-25.2-40.8-45-1.6-6.6-2.2-26-1.6-53.4 0.6-49.2 2-54.6 18-70.4 13.6-13.6 25.4-18.4 45.6-18.4s32 4.8 45.6 18.4c16.4 16.4 17.4 20.4 17.4 76.4 0 46-0.2 49.6-4.4 58.4-5.6 12.2-20.2 26.8-32.2 32-13.2 6-34.4 6.8-47.6 2zM69 827l-5-4.8v-812.4l5-4.8 4.8-5h876.4l4.8 5 5 4.8v812.4l-5 4.8-4.8 5h-118l-1.2-97.2-6.6-13.2c-18-36.6-68.4-57.6-111.4-46.6-29.8 7.8-55.6 26.6-66.6 48.8-5.4 11.2-5.4 11.4-6 59.8l-0.6 48.4h-255.6l-0.6-48.4c-0.6-48.2-0.6-48.6-6-59.6-7.4-15.2-15.6-24.2-29.6-33.6-18.8-12.6-35-17.4-60-17.4s-41.2 4.8-60 17.4c-14 9.4-22.2 18.4-29.6 33.6-5.4 11-5.4 11.4-6 59.6l-0.6 48.4h-118l-4.8-5zM864 352v-256h-704v512h704v-256zM299.2 549.8c-20.2-2.2-51.8-9-72.4-15.4l-17.8-5.6-0.6-41.4-0.4-41.4h4.6c2.4 0 10.4 3.2 17.6 7 17.8 9.4 51.2 20.2 71.6 23.2 19.4 2.8 46.4 1.4 61.6-3.2 18-5.4 28.6-17.4 28.6-32.4 0-13-3.6-22-11.6-28.6-11.6-9.6-23.4-12.2-60.8-13.4l-33.6-1.2v-65.4h30.6c46.6 0 65.8-5.6 75.8-21.6 3.8-6.2 4.6-10.2 4.6-24.8 0-16-0.4-17.8-6-26-7.8-11.2-22.2-20.6-35.4-23.6-40.4-8.8-88-1.4-132.6 20.2-8.6 4.4-17.8 7.8-20.4 7.8h-4.6l0.4-41.4 0.6-41.6 16.2-5.4c38.8-13 82.2-18.8 128.8-17 32.4 1.2 50.8 4.6 73.2 13.2 53 20.6 81.2 62.6 78.2 116.8-0.8 14.4-2 19.8-7.2 30.2-11 22.4-33.4 39.2-60.6 45.4-11.8 2.8-14.4 5-8 7 1.8 0.6 9.8 4.2 17.6 8 32 15.2 50.8 48.4 48.2 85.2-3.2 47.8-40.8 76.8-110.4 85.4-20.2 2.4-55 2.4-75.8 0zM644 540.6c0-15.8-14-34-30.8-40.4-11.2-4.2-35.8-8.2-50.4-8.2h-8.8v-62h80v-198h-80v-66h254v66h-80v312h-42c-38.6 0-42-0.2-42-3.4z" />
</font>
</defs>
</svg>
